<?xml version="1.0" encoding="UTF-8"?>
<svg width="20px" height="20px" viewBox="0 0 20 20" version="1.1" xmlns="http://www.w3.org/2000/svg" xmlns:xlink="http://www.w3.org/1999/xlink">
    <title>B4BCC98A-B9FF-4724-BEB2-82804F8F35E6@1x</title>
    <defs>
        <path d="M16.3970149,9.4283381 L16.3953092,9.42671262 L10.4260128,3.73833638 C10.0925373,3.42055454 9.55351812,3.42055454 9.22004264,3.73833638 C8.88656716,4.05611822 8.88656716,4.56977071 9.22004264,4.88755255 L13.7343284,9.18939216 L3.85287846,9.18939216 C3.38123667,9.18939216 3,9.55268752 3,10.0021334 C3,10.4515794 3.38123667,10.8148747 3.85287846,10.8148747 L13.7309168,10.8148747 L9.21321962,15.1118379 C8.87974414,15.4296197 8.87974414,15.944085 9.21151386,16.2610541 C9.37867804,16.4211641 9.59701493,16.5 9.81535181,16.5 C10.0336887,16.5 10.2511727,16.4211641 10.417484,16.2626795 L17,10.0029462 L16.3970149,9.4283381 Z" id="path-1"></path>
    </defs>
    <g id="BF" stroke="none" stroke-width="1" fill="none" fill-rule="evenodd">
        <g id="Assets-SVG" transform="translate(-130.000000, -248.000000)">
            <g id="Icons-/-Arrow-/-Right" transform="translate(130.000000, 248.000000)">
                <rect id="bg" x="0" y="0" width="20" height="20"></rect>
                <mask id="mask-2" fill="white">
                    <use xlink:href="#path-1"></use>
                </mask>
                <use id="Fill-1" fill="#8c8c90" xlink:href="#path-1"></use>
            </g>
        </g>
    </g>
</svg>