<?xml version="1.0" encoding="UTF-8"?>
<svg width="24px" height="24px" viewBox="-1 -1 26 26" version="1.1" xmlns="http://www.w3.org/2000/svg" xmlns:xlink="http://www.w3.org/1999/xlink">
    <title>BAD208B5-C97B-4BD7-8750-EA30B3641BB7@1.00x</title>
    <g id="Field-States" stroke="none" stroke-width="1" fill="none" fill-rule="evenodd">
        <g id="Assets" transform="translate(-100.000000, -218.000000)">
            <g id="icon-/-18+" transform="translate(100.000000, 218.000000)">
                <g id="Rebuild-/-Atoms-/-Logo-/-18+/-white">
                    <circle id="Oval" fill="#FFFFFF" cx="12" cy="12" r="12"></circle>
                    <circle cx='12' cy='12' r='12' fill='none' stroke='#ea3e46' stroke-width="2"/>
                    <path d="M7.19384615,9 L6.06338462,9 C5.88861538,9.43690343 5.584,9.81664192 5.18584615,10.0954668 C4.832,10.3696252 4.43076923,10.585452 4,10.7324475 L4,11.9235781 C4.66970414,11.7208473 5.28434964,11.3813536 5.80061538,10.9290249 L5.80061538,15.8755417 L7.19384615,15.8755417 L7.19384615,9 L7.19384615,9 Z M9.55076923,12.8977152 C9.35599822,13.2059934 9.25464506,13.5591972 9.25784615,13.9185176 C9.23071117,14.536054 9.52083053,15.1277945 10.0363077,15.5063028 C10.5101538,15.8446259 11.0941538,16.0178707 11.688,15.9974546 C12.3186364,16.0261037 12.9347204,15.8119501 13.3963077,15.4036393 C13.8294472,14.9981125 14.0626209,14.4385699 14.0387692,13.861936 C14.0458363,13.5015619 13.9358413,13.1478418 13.7236923,12.8487167 C13.4958458,12.5425553 13.1748979,12.3095554 12.8036923,12.1808203 C13.104,12.0641571 13.3618462,11.8664131 13.544,11.6132541 C13.7206912,11.3627017 13.8125726,11.067032 13.8073846,10.7656965 C13.8207804,10.284548 13.6111868,9.82197675 13.2338462,9.49990152 C12.2742625,8.83386113 10.9700452,8.83386113 10.0104615,9.49990152 C9.63615397,9.82355703 9.4290308,10.2856342 9.44307692,10.7656965 C9.4294648,11.3987274 9.84501826,11.9688926 10.4744615,12.1808203 C10.0924351,12.3183529 9.76799814,12.5699868 9.55015385,12.8977152 L9.55076923,12.8977152 Z M10.9981538,10.2652117 C11.1703501,10.1109652 11.4015259,10.0300561 11.6381538,10.0412184 C11.8707692,10.0278022 12.0978462,10.1094664 12.2621538,10.2652117 C12.4264615,10.4203736 12.5113846,10.6350338 12.496,10.8537772 C12.5101538,11.0812703 12.424,11.3029302 12.2584615,11.4685919 C11.8945232,11.7621996 11.3596307,11.7621996 10.9956923,11.4685919 C10.8322727,11.3044329 10.7472656,11.0837948 10.7606154,10.8584437 C10.750474,10.6381675 10.8363753,10.4236365 10.9981538,10.2652117 L10.9981538,10.2652117 Z M10.8812308,13.0727099 C11.0584615,12.8475501 11.3458462,12.7227205 11.6424615,12.7413866 C11.9193846,12.7343868 12.1858462,12.8405503 12.3723077,13.0336278 C12.5710769,13.2459547 12.6738462,13.5236129 12.6603077,13.8059377 C12.6826095,14.1109956 12.581376,14.4126373 12.3772308,14.6494121 C12.1957229,14.8408983 11.9348785,14.9474721 11.6633846,14.94107 C11.3814391,14.9478189 11.1105757,14.8369309 10.9224615,14.6377458 C10.547636,14.1811867 10.5311567,13.5461862 10.8818462,13.0727099 L10.8812308,13.0727099 Z M18.0910769,14.8897382 L18.0910769,13.1106254 L20,13.1106254 L20,11.8815793 L18.0910769,11.8815793 L18.0910769,10.1024666 L16.8209231,10.1024666 L16.8209231,11.8815793 L14.9163077,11.8815793 L14.9163077,13.1106254 L16.8209231,13.1106254 L16.8209231,14.8897382 L18.0910769,14.8897382 L18.0910769,14.8897382 Z" id="Shape" fill="#000000"></path>
                </g>
            </g>
        </g>
    </g>
</svg>