<?xml version="1.0" encoding="UTF-8"?>
<svg width="24px" height="24px" viewBox="0 0 24 24" version="1.1" xmlns="http://www.w3.org/2000/svg" xmlns:xlink="http://www.w3.org/1999/xlink">
    <title>1530E2D0-027C-4F47-8EFB-F2B18151D02B@1.00x</title>
    <g id="Field-States" stroke="none" stroke-width="1" fill="none" fill-rule="evenodd">
        <g id="Assets" transform="translate(-320.000000, -262.000000)">
            <g id="icon-/--show" transform="translate(320.000000, 262.000000)">
                <g id="eye">
                    <rect id="bg" x="0" y="0" width="24" height="24"></rect>
                    <g transform="translate(3.000000, 7.000000)" fill="#18181a" fill-rule="nonzero">
                        <path d="M18.8185539,5.28647059 C18.6306276,5.07294118 14.1851978,0 9.5,0 C4.81480218,0 0.369372442,5.07294118 0.181446112,5.28647059 L0,5.5 L0.181446112,5.71352941 C0.369372442,5.92705882 4.81480218,11 9.5,11 C14.1851978,11 18.6306276,5.92705882 18.8185539,5.71352941 L19,5.5 L18.8185539,5.28647059 Z M9.5,9.70588235 C7.18008186,9.70588235 5.28785812,7.81647059 5.28785812,5.5 C5.28785812,3.18352941 7.18008186,1.29411765 9.5,1.29411765 C11.8199181,1.29411765 13.7121419,3.18352941 13.7121419,5.5 C13.7121419,7.81647059 11.8199181,9.70588235 9.5,9.70588235 Z" id="Shape"></path>
                        <path d="M9.5,3 C8.12142857,3 7,4.12142857 7,5.5 C7,6.87857143 8.12142857,8 9.5,8 C10.8785714,8 12,6.87857143 12,5.5 C12,4.12142857 10.8785714,3 9.5,3 Z" id="Path"></path>
                    </g>
                </g>
            </g>
        </g>
    </g>
</svg>