<svg xmlns="http://www.w3.org/2000/svg" width="84" height="14" viewBox="0 0 84 14">
    <path fill-rule="evenodd" d="M20.572 0h2.23v4.884h.038c.417-.566 1.302-1.086 2.893-1.086h1.13c3.64 0 5.04 1.086 5.04 4.142v2.017c0 3.3-2.17 4.03-5.13 4.028h-.733a3.945 3.945 0 0 1-3.197-1.21h-.04v.897h-2.23V0zm9.1 8.068c0-2.21-1.09-2.536-3.08-2.536h-.232c-2.043 0-3.558.041-3.558 2.326v1.878c0 1.846.689 2.518 3.213 2.518h.507c2.66 0 3.15-.79 3.15-2.644V8.068zm24.03-2.296H52.5V4.04h1.201v-.872c0-2.267 1.5-3.168 3.29-3.168h2.956v1.643h-2.224c-1.216 0-1.789.678-1.789 1.52v.879h2.993v1.732h-2.993v8.212h-2.23V5.773l-.001-.001zm-7.659-1.733h-1.202v1.733h1.202v5.041c0 2.268 1.5 3.17 3.29 3.17H52.1v-1.731h-2.224c-1.216 0-1.6-.588-1.6-1.43V5.774h2.993V4.04h-2.993V0h-2.229l-.004 4.04zM71.723 0v2.187h2.226V0h-2.226zm0 3.797v10.186h2.23V3.8h-2.228l-.002-.003zM41.95 11.13c-.33.891-1.123 1.125-2.87 1.125h-.514c-2.854 0-3.32-.35-3.32-2.526h8.847V7.843c0-3.41-1.834-4.043-4.76-4.043h-1.092c-2.317 0-5.13.392-5.13 3.86v2.41c0 3.368 2.438 3.92 4.568 3.917h2.004c2.702 0 3.934-.83 4.25-2.277l-1.983-.581zm-6.703-3.445c0-1.958.943-2.152 3.243-2.152h.452c2.59 0 2.92.63 2.92 1.916v.546h-6.618v-.31h.003zM64.74 3.8h-.831c-3.022 0-4.334.898-4.418 2.244l2.125.682c.098-.92 1.19-1.19 2.847-1.19 2.465 0 3.048.137 3.048 1.859v.927h-.046c-.56-.717-1.317-.902-3.25-.902h-.866c-2.849 0-4.506.684-4.505 2.86v.622c0 1.797.709 3.077 3.682 3.077h2.161c2.152 0 2.368-.342 2.794-.936h.033v.933h2.23V7.431c0-2.854-1.96-3.637-5.001-3.637l-.003.006zm2.774 7.136c0 .957-.678 1.312-3.317 1.312h-.596c-2.24 0-2.53-.42-2.53-1.244v-.536c0-.958.56-1.319 2.416-1.319h.994c1.691 0 3.03.321 3.03 1.391v.396h.003zM82.599 6.19L84 5.281c-.345-.924-1.277-1.481-3.25-1.481a2.974 2.974 0 0 0-2.626 1.351h-.081V3.8h-2.111v10.187h2.229v-6.13a2.217 2.217 0 0 1 2.47-2.325c1.235 0 1.831.327 1.964.665l.004-.006zM10.695.036v2.798H7.609L13.58 9.57l5.974-6.736h-3.086V.036h-5.773zM0 11.12h3.086v2.797h5.772V11.12h3.086l-5.97-6.737L0 11.12z"/>
</svg>
